<?xml version="1.0" standalone="no"?>
<!DOCTYPE svg PUBLIC "-//W3C//DTD SVG 1.1//EN" "http://www.w3.org/Graphics/SVG/1.1/DTD/svg11.dtd" >
<svg xmlns="http://www.w3.org/2000/svg">
<metadata>
Created by FontForge 20120731 at Thu Sep  8 19:29:27 2016
 By admin
</metadata>
<defs>
<font id="iconfont" horiz-adv-x="1024" >
  <font-face 
    font-family="iconfont"
    font-weight="500"
    font-stretch="normal"
    units-per-em="1024"
    panose-1="2 0 6 3 0 0 0 0 0 0"
    ascent="896"
    descent="-128"
    x-height="792"
    bbox="0 -128 1024 896"
    underline-thickness="50"
    underline-position="-100"
    unicode-range="U+0078-E62C"
  />
<missing-glyph horiz-adv-x="374" 
d="M34 0v682h272v-682h-272zM68 34h204v614h-204v-614z" />
    <glyph glyph-name=".notdef" horiz-adv-x="374" 
d="M34 0v682h272v-682h-272zM68 34h204v614h-204v-614z" />
    <glyph glyph-name=".null" horiz-adv-x="0" 
 />
    <glyph glyph-name="nonmarkingreturn" horiz-adv-x="341" 
 />
    <glyph glyph-name="x" unicode="x" horiz-adv-x="1001" 
d="M281 543q-27 -1 -53 -1h-83q-18 0 -36.5 -6t-32.5 -18.5t-23 -32t-9 -45.5v-76h912v41q0 16 -0.5 30t-0.5 18q0 13 -5 29t-17 29.5t-31.5 22.5t-49.5 9h-133v-97h-438v97zM955 310v-52q0 -23 0.5 -52t0.5 -58t-10.5 -47.5t-26 -30t-33 -16t-31.5 -4.5q-14 -1 -29.5 -0.5
t-29.5 0.5h-32l-45 128h-439l-44 -128h-29h-34q-20 0 -45 1q-25 0 -41 9.5t-25.5 23t-13.5 29.5t-4 30v167h911zM163 247q-12 0 -21 -8.5t-9 -21.5t9 -21.5t21 -8.5q13 0 22 8.5t9 21.5t-9 21.5t-22 8.5zM316 123q-8 -26 -14 -48q-5 -19 -10.5 -37t-7.5 -25t-3 -15t1 -14.5
t9.5 -10.5t21.5 -4h37h67h81h80h64h36q23 0 34 12t2 38q-5 13 -9.5 30.5t-9.5 34.5q-5 19 -11 39h-368zM336 498v228q0 11 2.5 23t10 21.5t20.5 15.5t34 6h188q31 0 51.5 -14.5t20.5 -52.5v-227h-327z" />
    <glyph glyph-name="uniE600" unicode="&#xe600;" 
d="M949 535q-11 11 -26.5 11t-26.5 -11l-382 -386l-387 384q-11 11 -26.5 11t-26.5 -11t-11 -26.5t11 -26.5l412 -408h1l1 -1v-1q11 -11 26 -11q16 0 27 11l408 412q11 11 11 26.5t-11 26.5zM949 535z" />
    <glyph glyph-name="uniE601" unicode="&#xe601;" 
d="M572 384l226 226q13 12 13 30t-12.5 30.5t-30.5 12.5t-30 -13l-226 -226l-226 226q-12 13 -30 13t-30.5 -12.5t-12.5 -30.5t13 -30l226 -226l-226 -226q-13 -12 -13 -30t12.5 -30.5t30.5 -12.5t30 13l226 226l226 -226q12 -13 30 -13t30.5 12.5t12.5 30.5t-13 30z" />
    <glyph glyph-name="uniE602" unicode="&#xe602;" 
d="M70 383q7 2 19 7t47 27t67 50t71.5 79t67.5 112q98 -115 148 -157q24 -18 54.5 -6.5t62 42.5t55.5 63.5t35 56.5l142 -136q105 -99 113 -92l-2 -5q-22 -14 -251 172q-69 -107 -111 -138q-1 -2 -1.5 -4.5t-0.5 -8.5t2 -9t7.5 -2t14.5 8q14 12 36.5 43t38.5 56l15 25
l141 -103q82 -58 93 -56l-37 -5q-60 -13 -63 -33q-2 -20 40 -106.5t58 -111.5l-1 -1q-25 16 -114 145q-25 37 -53 79q-36 -60 -110 -135q-1 -1 -2.5 -3.5t-3.5 -8t-1.5 -9t5.5 -3t15 6.5q13 7 30 25.5t29.5 35t25.5 35.5t14 19q2 3 9 -6.5t17.5 -27t24 -39t28.5 -44.5
t30 -42t30.5 -32.5t27.5 -15.5q38 -8 -300 -15l-310 -5q6 5 16.5 12.5t37.5 28.5t48 39t38.5 37t18.5 28q2 -2 6.5 -5.5t18 -13t26.5 -18.5t29.5 -20t31 -19t27.5 -13.5t21.5 -5.5t11.5 7q-71 51 -174 135q-5 -7 -13.5 -18t-33.5 -40.5t-48 -52.5t-51.5 -43t-48.5 -22
q13 17 34 44t59.5 84.5t45.5 84.5l-261 -18l20 15q12 9 44.5 35t58 50t48.5 53.5t28 51.5q4 -4 9 -9.5t23 -23.5t34.5 -33.5t42.5 -39t47.5 -39t49.5 -34t48 -24.5t43 -10t36 9q-6 2 -17 7t-47 26.5t-74 48.5t-95 77.5t-113 110.5l-3 -12q-1 -8 -12.5 -32.5t-28 -50t-51 -62
t-79.5 -71.5q0 -1 -5.5 -5t-16 -8t-23 -4.5t-29 8.5t-31.5 28z" />
    <glyph glyph-name="uniE603" unicode="&#xe603;" 
d="M512 42l450 562h-900zM512 42z" />
    <glyph glyph-name="uniE604" unicode="&#xe604;" 
d="M947 829h-869q-5 0 -8.5 -3.5t-3.5 -8.5v-866q0 -5 3.5 -8.5t8.5 -3.5h869q5 0 8.5 3.5t3.5 8.5v866q0 5 -3.5 8.5t-8.5 3.5zM898 -3q0 -5 -4 -8.5t-9 -3.5h-760q-5 0 -8.5 3.5t-3.5 8.5v761q0 5 3.5 8.5t8.5 3.5h760q5 0 9 -3.5t4 -8.5v-761zM512 385zM320 385.5
q0 79.5 56 135.5t135.5 56t135.5 -56t56 -135.5t-56 -135.5t-135.5 -56t-135.5 56t-56 135.5z" />
    <glyph glyph-name="uniE605" unicode="&#xe605;" 
d="M347 111q0 -8 -5 -15.5t-13 -9.5l-247 -84q-7 -2 -12.5 1.5t-5.5 11.5v706q0 8 5.5 15.5t12.5 9.5l247 84q8 2 13 -2t5 -11v-706zM961 111q0 -8 -5.5 -15.5t-12.5 -9.5l-248 -84q-7 -2 -12.5 1.5t-5.5 11.5v706q0 8 5.5 15.5t12.5 9.5l248 84q7 2 12.5 -2t5.5 -11v-706z
M371 111q0 -8 5 -15.5t13 -9.5l247 -84q8 -2 13 1.5t5 11.5v706q0 8 -5 15.5t-13 9.5l-247 84q-8 2 -13 -2t-5 -11v-706zM371 111z" />
    <glyph glyph-name="uniE606" unicode="&#xe606;" 
d="M174 554q108 20 216 31v121q-104 -15 -193 -51q-9 -24 -15 -49.5t-7 -38.5zM633 815q4 -11 4 -21v-56q94 -14 179 -44q-19 30 -45.5 54t-54.5 37.5t-47 20t-36 9.5zM637 585q48 -5 102 -13.5t83 -13.5l30 -6q0 55 -17 101q-89 37 -198 54v-122zM390 794q0 9 4 20
q-119 -15 -177 -119q82 30 173 43v56zM174 142q0 -44 13 -79t33 -55.5t45 -35.5t49.5 -21.5t45 -10t33.5 -3.5h13h251q31 0 58 7t46 18.5t34 26.5t24.5 31.5t16.5 33.5t10 32t5 26.5t2 18.5v7v365q-77 29 -225 40q-19 -35 -60 -35h-107q-39 0 -60 35q-31 -2 -60.5 -6
t-51.5 -8t-41.5 -8.5t-33.5 -8t-23.5 -7t-14.5 -5.5l-5 -1q3 -144 3 -357zM606 14h-200q-15 0 -31 31q3 7 8.5 17t21.5 27.5t31 17.5q12 0 41.5 -16t36.5 -16t35.5 16t40.5 16q15 0 36.5 -21.5t26.5 -40.5q-1 -4 -4.5 -9t-15.5 -13.5t-27 -8.5zM668 75q-14 23 -36.5 43
t-41.5 20q-15 0 -41.5 -15.5t-34.5 -15.5q-7 0 -31 14.5t-47 14.5q-18 0 -37 -15t-29 -30l-10 -15q-2 0 -4.5 0.5t-7 8.5t-4.5 21q0 24 31 51t61 27q24 0 48 -15.5t30 -15.5t32.5 15.5t44.5 15.5q25 0 59 -27.5t34 -49.5q0 -31 -16 -32zM714.5 433q32.5 0 55 -14t22.5 -35
q0 -20 -22.5 -33t-55 -13t-55 13t-22.5 33q0 21 22.5 35t55 14zM467 353q3 4 7.5 11t7 9.5t7 6t10.5 5t15 1.5q13 0 23.5 -6t14 -11t8.5 -14q6 -10 28 -38.5t33 -39.5q13 -12 9 -29.5t-23 -17.5q-11 0 -17.5 4.5t-8.5 10.5t-5 11t-7 5q-6 0 -11 -7.5t-15.5 -15t-28.5 -7.5
q-13 0 -22.5 4.5t-13.5 10.5t-8.5 10.5t-8.5 4.5q-7 0 -17.5 -15.5t-23.5 -15.5q-18 0 -22.5 17.5t8.5 29.5q23 24 61 76zM328.5 433q32.5 0 55 -14t22.5 -35q0 -20 -22.5 -33t-55 -13t-55 13t-22.5 33q0 21 22.5 35t55 14zM461 539h107q12 0 22 6q16 11 16 32v217
q0 13 -6 23q-10 16 -28 16h-112q-19 0 -31 -16q-8 -11 -8 -23v-216q0 -20 19 -32q10 -7 21 -7z" />
    <glyph glyph-name="uniE607" unicode="&#xe607;" 
d="M511 -63q-381 -1 -396 0q-8 0 -13.5 14t-1.5 38t19 47q14 21 85.5 55t137 58t75.5 24q4 0 13.5 -7t29.5 -14t51 -6q31 -1 51 6t29.5 14t14.5 7q9 0 74.5 -24t137 -58t85.5 -55q16 -23 19.5 -47t-1.5 -38t-14 -14q-3 0 -26.5 -0.5t-58.5 -0.5h-76q-42 0 -83.5 0.5
t-74.5 0.5h-56q-22 0 -21 0zM511 831h61v-47h69v-19h-81l-3 -66q5 -1 13.5 -3.5t30.5 -12t39 -22t32.5 -34.5t18.5 -47q4 -43 3.5 -72.5t-2.5 -45.5l-2 -16q12 8 20 -7q7 -15 1 -30.5t-18 -17.5l-14 -3q-22 -88 -56 -123q-28 -29 -60 -41.5t-51.5 -12.5t-52 12.5t-60.5 41.5
q-15 15 -29 46t-20 54l-6 23l-15 3q-12 2 -18 17.5t1 30.5q4 6 9 8t8 1l4 -2q-2 6 -3 16.5t-2.5 45.5t3.5 72q3 25 18 47t34 35t38 21.5t31 12.5l13 3l-3 66h-80v19h69v47h60z" />
    <glyph glyph-name="uniE608" unicode="&#xe608;" 
d="M148 468q12 0 20 8.5t8 19.5q5 3 14 6.5t41 13.5t68.5 17.5t96 13.5t123.5 6q61 1 117 -5t93 -14.5t65 -17t41 -14.5l13 -6q0 -11 8 -19.5t19.5 -8.5t20 8.5t8.5 19.5v224q0 47 -33 79.5t-79 32.5h-561q-45 0 -78 -32.5t-33 -79.5v-224q0 -11 8 -19.5t20 -8.5zM932 49
h-840q-12 0 -20 -8.5t-8 -20t8 -19.5t20 -8h84q0 -23 16.5 -39.5t39.5 -16.5t39.5 16.5t16.5 39.5h448q0 -23 16.5 -39.5t39.5 -16.5t39.5 16.5t16.5 39.5h84q11 0 19.5 8t8.5 19.5t-8.5 20t-19.5 8.5zM848 440h-673q-45 0 -78 -32.5t-33 -78.5v-224q0 -12 8 -20t20 -8t20 8
t8 20h784q0 -12 8 -20t19.5 -8t20 8t8.5 20v224q0 46 -33 78.5t-79 32.5zM848 440z" />
    <glyph glyph-name="uniE609" unicode="&#xe609;" 
d="M906 115v-3v-1h-3h-2l-6 -5v4q-52 -3 -97.5 -10t-79.5 -17.5t-60 -21t-46.5 -23.5t-31.5 -21t-22.5 -19t-12.5 -11v-36h-130v790l65 78l65 -78v-154q32 12 64 12q81 0 138 -57t57 -138q0 -73 -48.5 -128t-120.5 -64v-2h-51v117h12v1q7 -1 13 -1q33 0 55.5 22.5t22.5 55
t-22.5 55t-55.5 22.5q-41 0 -64 -35v-311q18 7 49.5 22t55 23.5t87 17t158.5 10.5v1v-1q2 0 5.5 0.5t5.5 0.5v-10l54 -42zM65 268l78 59h233v-117h-233zM65 268z" />
    <glyph glyph-name="uniE60A" unicode="&#xe60a;" 
d="M869 339q-38 0 -68 25q-6 3 -7 4l-284 284l-283 -284q-1 0 -2.5 -1t-2.5 -2q-30 -26 -69 -26q-29 0 -53 13.5t-38 36.5q19 -6 36 -6q63 0 98 51l2 -2l55 55l213 212q0 1 5 4q-15 16 -15 38t16 38t38.5 16t38.5 -16t16 -38t-16 -38q6 -3 6 -4l162 -162l-1 -1l107 -106l2 2
q36 -50 98 -50q17 0 36 6q-32 -49 -90 -49zM185 36h33v249q0 19 17 29l275 275l276 -275q17 -10 17 -29v-249h33q13 0 22.5 -9.5t9.5 -23t-9.5 -23t-22.5 -9.5h-651q-13 0 -22.5 9.5t-9.5 23t9.5 23t22.5 9.5zM510 318q23 0 39 15.5t16 38t-16 38.5t-38.5 16t-38.5 -16
t-16 -38.5t16 -38t38 -15.5zM510 318z" />
    <glyph glyph-name="uniE60B" unicode="&#xe60b;" 
d="M868 123q-16 15 -215 183l-110 -29q201 -232 217 -247h1q2 -4 5 -7q21 -20 51 -20t51 20.5t21 49.5t-21 50v0zM895 809q1 10 -7 17q-7 7 -17 7t-17 -7l-90 -89q-91 -89 -185.5 -182t-102.5 -101q-39 32 -48 40q21 33 17 72.5t-31 68.5l-173 171q-7 7 -17 7t-17 -7
t-7 -16.5t7 -16.5l17 -17q11 -11 33.5 -33t37.5 -37l15 -14q6 -7 6 -16.5t-7 -16.5t-16.5 -7t-16.5 7l-103 100v0q-7 7 -17 7t-17 -7t-7 -16.5t7 -16.5v0l102 -101q7 -7 7 -16.5t-7 -16.5t-16.5 -7t-16.5 7l-103 100q-7 7 -17 7t-17 -7t-7 -16.5t7 -16.5q137 -135 174 -170
q27 -26 68.5 -30t75.5 16q16 -18 40 -46q-275 -269 -292 -287l-2 -4q-18 -21 -17 -48.5t21 -47t48 -20.5t49 17q21 16 306 346q28 -19 63 -16.5t60 27.5l3 2q76 77 151.5 217.5t75.5 212.5v1v0zM895 809z" />
    <glyph glyph-name="uniE60C" unicode="&#xe60c;" 
d="M516 635l438 -501h-881z" />
    <glyph glyph-name="uniE60D" unicode="&#xe60d;" 
d="M409 810.5q0 -7.5 -5.5 -12.5t-13 -5t-12.5 5t-5 12.5t5 13t12.5 5.5t13 -5.5t5.5 -13zM468 810.5q0 -7.5 -5 -12.5t-12.5 -5t-13 5t-5.5 12.5t5.5 13t13 5.5t12.5 -5.5t5 -13zM535 810.5q0 -7.5 -5 -12.5t-12.5 -5t-13 5t-5.5 12.5t5.5 13t13 5.5t12.5 -5.5t5 -13z
M595 810.5q0 -7.5 -5.5 -12.5t-13 -5t-12.5 5t-5 12.5t5 13t12.5 5.5t13 -5.5t5.5 -13zM655 810.5q0 -7.5 -5.5 -12.5t-13 -5t-12.5 5t-5 12.5t5 13t12.5 5.5t13 -5.5t5.5 -13zM385 793h11v-723h-11v723zM445 793h11v-723h-11v723zM512 793h11v-723h-11v723zM571 793h11
v-723h-11v723zM631 793h11v-723h-11v723zM828 428q-29 42 -45.5 84.5t-20.5 74t-4 57t3 38.5l3 13l1 2q16 -9 33 -9q27 0 47 20t20 47.5t-20 47.5t-47 20q-22 0 -39 -12.5t-24 -32.5h-435q-7 20 -24 32.5t-39 12.5q-28 0 -47.5 -20t-19.5 -47.5t19.5 -47.5t47.5 -20
q15 0 28 7h1q1 -5 3 -14t3 -37.5t-3.5 -58t-21.5 -72.5t-45 -85q-47 -73 -66 -141t-12.5 -117.5t29.5 -91t52 -66t62 -38.5q36 -15 89.5 -14.5t88.5 7t35 7.5q14 -20 33 -22h1h3q20 0 35 21q22 -5 48.5 -9t78 -4t84.5 14q32 14 61.5 38.5t52 66t29.5 91t-12 117.5t-66 141z
M560 83q-16 34 -43 34t-43 -34q-168 0 -215 76.5t27 240.5q28 61 41.5 117.5t13 93.5t-5.5 65.5t-11 41.5l-7 13h396q-3 -5 -7 -14t-11 -40t-6.5 -66.5t13.5 -92.5t42 -118q73 -163 27 -239.5t-211 -77.5z" />
    <glyph glyph-name="uniE60E" unicode="&#xe60e;" 
d="M696 265h-138q-3 1 -6 1h-71q-3 0 -5 -1h-141h361zM931 228q-14 10 -38.5 15t-47.5 13.5t-37 28.5q-2 1 -3 4.5t2.5 16t15.5 27.5q38 46 24 132q-5 31 -31 50.5t-57.5 19.5t-57.5 -19.5t-31 -50.5q-14 -86 24 -132q5 -11 2 -19t-10 -18t-7 -13q3 0 16.5 -4t23.5 -7.5
t16 -7.5q52 -37 44 -118h178q-1 3 1 16t-5 34t-22 32zM297 264q12 8 58 23q0 2 -7 11.5t-10 17t2 17.5q38 46 24 132q-5 31 -31 50.5t-57.5 19.5t-57.5 -19.5t-31 -50.5q-14 -86 23 -132q13 -15 17 -27.5t1 -16.5l-2 -4q-14 -20 -37 -28.5t-47.5 -13.5t-38.5 -15
q-15 -11 -22 -32.5t-5 -34t1 -15.5h178q0 1 -1 3q-8 79 43 115zM729 248q-15 10 -40 17q-16 4 -38 8.5t-29.5 7t-19.5 11.5t-25 25q-1 2 -2.5 6t2.5 19.5t20 34.5q24 30 30.5 78t-1.5 85q-7 38 -38.5 62.5t-71 24.5t-71.5 -24.5t-38 -62.5q-8 -37 -1.5 -85t30.5 -78
q16 -19 20.5 -34t1.5 -20l-3 -6q-8 -11 -18 -19t-23 -13.5t-21.5 -8t-25 -6t-22.5 -5.5q-26 -7 -42 -17q-32 -24 -32 -102h4h199h42h44h199h3q1 3 1.5 8t0 18.5t-3.5 26t-10.5 26.5t-20.5 23z" />
    <glyph glyph-name="uniE60F" unicode="&#xe60f;" 
d="M696 265h-138q-3 1 -6 1h-71q-3 0 -5 -1h-141h361zM463 604q18 -34 20 -38q23 -33 56 -53q18 -11 37 -18q-54 16 -99 58t-45 79l-1 1q11 -24 32 -27v-2zM741 743q-42 -11 -38 -41q18 -27 21 -32q17 -34 18 -54q3 -30 -16.5 -56t-52.5 -41q-43 -19 -84 -26q50 1 89 16
q46 18 70 48.5t16 67.5q-5 26 -27 73q-12 26 4 45zM589 493q59 3 108 35q52 33 50 83q-1 7 -2.5 14t-5 15t-6 14t-8.5 15t-8.5 13t-9.5 14t-9 13q-32 48 -39 78q-9 37 16 55q-34 -8 -71 -25q-49 -23 -80 -63.5t-10 -80.5q-22 17 -14 46q-30 -17 -40 -50q-12 -48 21 -100
t95 -74zM656 457q2 5 -13 5q-7 0 -25 -2q-42 -4 -57 -1q-8 2 -20.5 7.5t-22.5 11t-20 10t-14.5 5t-6.5 -3.5l-53 -391q-1 -5 -10 -63.5t-9 -60.5q1 -16 15.5 -25t32 -6.5t28.5 17.5l11 33l17 51l8 24z" />
    <glyph glyph-name="uniE610" unicode="&#xe610;" 
d="M797 172h-80q-17 0 -28.5 -11.5t-11.5 -28.5v-114q0 -25 17.5 -42.5t42.5 -17.5h40q25 0 43 17.5t18 42.5v114q0 17 -12 28.5t-29 11.5zM757 457q-54 0 -106 -35.5t-83.5 -92t-31.5 -114.5q0 -25 11.5 -35t34.5 -8t48.5 8t62 12.5t65 6.5t62.5 -6.5t56.5 -11.5t42.5 -6.5
t29.5 9t9.5 35.5q0 92 -59.5 165t-141.5 73zM514 219q0 63 40 134q-12 6 -37.5 11t-40.5 5h-81q-50 0 -85.5 -33t-35.5 -82v-156q0 -58 41.5 -99t99.5 -41h40q58 0 107.5 51.5t49.5 110.5v28q-19 1 -34 0.5t-27 2t-20 8.5t-12.5 21t-4.5 39zM562 377q3 3 15.5 21t17.5 21
q8 7 11 10q3 2 8.5 5t7.5 4t5.5 2t4.5 2q20 11 41 18q6 3 17.5 5.5t13.5 2.5h1q21 5 32 5q14 0 22.5 4t12 11t4.5 12.5t1 13.5q0 79 -47 150.5t-124 115t-161 43.5q-74 0 -144 -34.5t-119 -88t-79 -120t-30 -130.5q0 -50 14 -100q6 -14 19 -22t30 -8q3 0 43 -1t62 0t26 4
q3 4 9 10q29 29 43.5 39.5t41 17.5t72.5 7q71 0 129 -20z" />
    <glyph glyph-name="uniE611" unicode="&#xe611;" 
d="M638 680q0 2 2 2h121q2 0 2 -2v-360q0 -2 -2 -2h-121q-2 0 -2 2v360zM165 -41q0 -2 2 -2h118q2 0 2 2v178q0 1 -0.5 1.5t-1.5 0.5h-57q-2 0 -2 2v19q0 2 2 2h57q2 0 2 2v213q0 2 -2 2h-57q-1 0 -1.5 0.5t-0.5 1.5v19q0 2 2 2h57q2 0 2 2v219q0 2 -2 2h-57q-2 0 -2 2v18
q0 2 2 2h57q2 0 2 3v178q0 2 -2 2h-118q-2 0 -2 -2v-869zM321 822q-2 0 -2 -2v-869q0 -2 2 -2h543q2 0 2 2v869q0 2 -2 2h-543zM786 297q0 -2 -2 -2h-167q-2 0 -2 2v406q0 2 2 2h167q2 0 2 -2v-406z" />
    <glyph glyph-name="uniE612" unicode="&#xe612;" 
d="M927 695h-75q-8 0 -13 -5.5t-5 -13.5v-93h-38v130q0 9 -5 14t-13 5h-75q-9 0 -14 -5t-5 -14v-93h-37v93q0 9 -5 14t-14 5h-74q-9 0 -14 -5t-5 -14v-93h-38v56q0 8 -5 13.5t-13 5.5h-75q-8 0 -13.5 -5.5t-5.5 -13.5v-93h-37v74q0 94 -130.5 94t-130.5 -94v-448h2
q43 37 128.5 37t128.5 -37h2v37h37v-93q0 -8 5.5 -13.5t13.5 -5.5h75q8 0 13 5.5t5 13.5v131h38v-94q0 -8 5 -13t14 -5h74q9 0 14 5t5 13v94h37v-94q0 -8 5 -13t14 -5h75q8 0 13 5t5 13v56h38v-93q0 -8 5 -13.5t13 -5.5h75q8 0 13.5 5.5t5.5 13.5v523q0 8 -5.5 13.5
t-13.5 5.5zM385 302h-37v225h37v-225zM535 340h-38v224h38v-224zM684 340h-37v224h37v-224zM834 302h-38v225h38v-225zM217.5 209q-130.5 0 -130.5 -93.5t130.5 -93.5t130.5 93.5t-130.5 93.5z" />
    <glyph glyph-name="uniE613" unicode="&#xe613;" 
d="M696 265h-138q-3 1 -6 1h-71q-3 0 -5 -1h-141h361zM474 130h86v-24h-86v24zM474 86h86v-24h-86v24zM287 41h460v-24h-460v24zM958 295q-2 1 -3 -1q-24 -24 -57.5 -36.5t-61.5 -13.5q-31 -1 -82 18q-8 3 -33 16v66h1h3q6 -1 10 -1q22 0 40 6q26 8 133 77q2 1 2 3v36
q0 2 -2 3t-3 0q-23 -24 -53.5 -36t-57.5 -13q-29 -1 -76 17q-7 3 -31 16v61q19 1 34 5q27 7 124 65q1 1 1 3v30q0 2 -1.5 3t-3.5 0q-20 -20 -48.5 -30.5t-53.5 -11.5q-27 -1 -70 15q-20 7 -146 74v21q8 4 8 13t-8 13v11q4 2 4 6.5t-4 7.5v16q0 7 -6 7t-6 -7v-16
q-4 -3 -4 -7.5t4 -6.5v-11q-8 -4 -8 -13t8 -13v-21q-125 -67 -145 -74q-44 -16 -71 -15q-24 1 -52.5 11.5t-49.5 30.5q-1 1 -3 0t-2 -3v-30q0 -2 2 -3q95 -58 123 -65q15 -4 34 -5v-61q-24 -13 -31 -16q-47 -18 -76 -17q-26 1 -57 13t-53 36q-2 2 -4 0.5t-2 -3.5v-35
q0 -3 2 -4q106 -69 134 -77q17 -6 40 -6q3 0 10 1h2h2v-66q-26 -13 -34 -16q-50 -19 -82 -18q-28 1 -61 13.5t-58 36.5q-1 2 -3 1t-2 -4v-36q0 -2 2 -4q112 -70 143 -79q19 -6 43 -6h11q7 1 7.5 0.5t7.5 -0.5v-105h172v105h115v-109h171v109q7 0 7.5 0.5t7.5 -0.5h11
q24 0 43 6q28 8 144 79q1 2 1 4v36q0 3 -2 4zM431 513h86v4v-4h87v-63q-87 -1 -173 0v63zM368 277h-26v66h19h7v-66zM376 513h26v-62h-26v62zM638 276q-121 -1 -241 0v67h241v-67zM658 451h-26v62h26v-62zM692 277h-26v66h7h19v-66z" />
    <glyph glyph-name="uniE614" unicode="&#xe614;" 
d="M372 364l-50 108h33l-80 214l-60 -210h30l-91 -181h91v0h60h31zM453 501l2 5h-30l90 301l100 -300h-21l3 -9l99 -233h-361zM701 295h25h1h59h90l-72 182l31 -1l-79 210l-60 -210h30l-54 -110zM696 265h-138q-3 1 -6 1h-71q-3 0 -5 -1h-141h361zM783 116v161h-59h-1v-131
q-122 28 -181 31v70h-60v-70q-66 -2 -181 -23v127h-59h-1v-135q-13 -5 -33.5 -15t-61.5 -34t-55 -41q22 10 48 14.5t65.5 8t66.5 7.5q-26 -13 -54 -33q-35 -28 -96 -87h361q-5 2 -13.5 6t-29.5 16t-37 22.5t-28.5 23.5t-11.5 22q1 14 22 30t42 23q24 7 56 7v-60h60v60
q280 -9 391 -60q-12 15 -49.5 30t-69.5 23z" />
    <glyph glyph-name="uniE615" unicode="&#xe615;" 
d="M896 128h-512q-53 0 -90.5 37.5t-37.5 90.5v512q0 53 37.5 90.5t90.5 37.5h512q53 0 90.5 -37.5t37.5 -90.5v-512q0 -53 -37.5 -90.5t-90.5 -37.5zM960 768q0 27 -18.5 45.5t-45.5 18.5h-512q-26 0 -45 -19t-19 -45v-512q0 -27 18.5 -45.5t45.5 -18.5h512q27 0 45.5 18.5
t18.5 45.5v512zM64 512v-512q0 -27 18.5 -45.5t45.5 -18.5h512q27 0 45.5 18.5t18.5 45.5v64h64v-64q0 -53 -37.5 -90.5t-90.5 -37.5h-512q-53 0 -90.5 37.5t-37.5 90.5v512q0 53 37.5 90.5t90.5 37.5h64v-64h-64q-26 0 -45 -19t-19 -45z" />
    <glyph glyph-name="uniE616" unicode="&#xe616;" 
d="M171.5 825q-23.5 0 -40 -21t-16.5 -51v-731q0 -30 16.5 -51.5t40 -21.5t40 21.5t16.5 51.5v731q0 30 -16.5 51t-40 21zM842 801q-23 -7 -58.5 -17t-102.5 -25t-84 -11q-13 3 -17.5 14t-5.5 22t-15 19.5t-42 8.5q-58 0 -109.5 -9.5t-74.5 -19.5l-23 -10q-2 -1 -5.5 -2.5
t-12 -8.5t-15 -15.5t-12 -22.5t-5.5 -30v-254q0 -17 4 -27t10 -12.5t12 -2.5t10 2l4 2q12 4 32.5 10.5t77.5 17t106 10.5q30 0 44.5 -9.5t16 -21t5.5 -22.5t15 -13q14 -4 69.5 10.5t119 34t79.5 22.5q17 3 28 10.5t15.5 18.5t5.5 19.5t1 21.5v223q0 51 -13.5 63.5t-59.5 3.5
zM655 550l-71 17l-55 -50l-6 74l-63 36l68 28l15 72l48 -56l73 8l-39 -62z" />
    <glyph glyph-name="uniE617" unicode="&#xe617;" 
d="M514 90q-33 0 -54 5q-82 6 -156 37q-71 28 -107 70q-60 72 -5 140q2 4 5 7t7 5.5t5 3.5q12 13 0 25q-11 11 -25 0q-2 -1 -3 -2l-9 -6q-46 -31 -66 -66q-28 -40 -28 -82.5t28 -82.5q12 -21 45 -54q67 -55 161 -82q130 -37 268 -25q99 6 198 46q87 36 136 90
q43 46 44.5 101.5t-36.5 100.5q-20 25 -70 66q-4 4 -8 4q-8 0 -17 -8q-1 -2 -1.5 -4t0.5 -4.5t2 -3.5l2 -4q1 -3 2 -4q4 -7 14 -17t14 -16q33 -52 0 -104q-16 -24 -28 -33q-32 -31 -91 -53q-83 -50 -227 -50zM371 691q-1 0 -3 2l-4 4q-5 5 -10 0t-16 -13t-16 -13
q-34 -29 -59 -68q-21 -43 -6 -82q9 -23 36 -62q4 -8 15.5 -24t16.5 -24q12 -21 7 -49q-5 -29 -26 -62q-4 -6 -4 -10q0 -11 4 -16q2 -3 6 -7q12 -2 16 -1t13 11l4 3q2 3 11 13t12.5 14.5t9.5 12.5t10.5 16t8.5 16q10 20 6 39q-5 32 -19 55q-24 30 -39 49q-3 4 -9.5 11.5
t-10 12t-8.5 11.5t-8 14q-12 24 -3 49q9 34 29 59q6 6 17.5 19t18.5 20zM565 785q-11 14 -14.5 14.5t-11.5 -9.5q-50 -50 -88 -115q-41 -74 -8 -152q7 -20 23.5 -53t20.5 -43q11 -19 26 -57q13 -33 8 -62q-6 -48 -30 -95l-4 -9q0 -20 8 -29q3 -5 15 -5h3q5 0 11 5q3 3 6 6.5
t5.5 7.5t3.5 5q3 4 15.5 23t17.5 26.5t13 22.5t13 28q12 32 7 57q-6 40 -15 62q-4 12 -10 24.5t-10 19t-14.5 22.5t-12.5 20q-30 48 -41 71q-14 30 -7 72q11 51 37 90q3 15 33 53zM722 712q-3 -3 -10 -8.5t-11 -8.5q-46 -41 -72 -79q-37 -54 -6 -110q6 -12 20 -34t21 -34
q3 -7 11.5 -21t12.5 -21q7 -10 7 -37q-5 -36 -28 -76q0 -2 -1.5 -5t-1.5 -5q0 -14 3.5 -17.5t16.5 -3.5q7 0 11 4q20 20 27 31q28 28 41 58q11 27 7 48q-3 17 -17 45q-5 8 -12 17.5t-12.5 16t-15.5 18t-15 16.5q-21 28 -27 41q-13 18 -7 48q10 37 34 66q5 7 18 21.5t20 22.5
z" />
    <glyph glyph-name="uniE618" unicode="&#xe618;" 
d="M319 -15h326v801h-326v-801zM597 97h-87v87h87v-87zM435 228v87h87v-87h-87zM597 358h-87v87h87v-87zM435 489v87h87v-87h-87zM510 706h87v-87h-87v87zM360 706h87v-87h-87v87zM360 445h87v-87h-87v87zM360 184h87v-87h-87v87zM77 -15h196v548h-196v-548zM132 490h87v-88
h-87v88zM132 335h87v-87h-87v87zM132 186h87v-87h-87v87zM916 455v105h-47v101h-34v95h-29v-95h-34v-101h-48v-105h-38v-470h269v470h-39zM817 45h-87v87h87v-87zM817 312h-87v87h87v-87zM920 179h-87v88h87v-88z" />
    <glyph glyph-name="uniE619" unicode="&#xe619;" 
d="M456 401v1l1 1h-3h-267v57h137q13 139 108 204q1 0 8 5t14 8.5t19 8t30 7t40 3.5q60 0 89.5 -14.5t68.5 -53.5q57 -57 66 -168h129v-57h-275q-4 0 -6 -2q-14 -10 -20 -19q-12 -11 -16 -38q0 -6 1 -11t2 -6.5t3.5 -5.5t3.5 -6q6 -12 22 -23q23 -15 55 -26q41 -13 73 -31
q36 -20 58 -46q25 -29 31 -65q4 -28 -3 -59q-12 -49 -48 -95l-2 -2h-508q-3 14 8 24q7 5 15 9q20 11 48 15l12 2q34 14 40 18q40 19 65 41q19 17 28 34q9 18 6 36q-3 15 -13 29q-15 20 -42 36q-15 9 -28 20q-18 14 -26 29q-16 27 -1 54q8 14 23 27zM543 724q10 0 17 6.5
t7 15.5v45q0 9 -7 15.5t-17 6.5t-17 -6.5t-7 -15.5v-45q0 -9 7 -15.5t17 -6.5zM833 588h-49q-10 0 -17 -6.5t-7 -16t7 -16t17 -6.5h49q10 0 17 6.5t7 16t-7 16t-17 6.5zM326 565.5q0 9.5 -7 16t-17 6.5h-48q-10 0 -17 -6.5t-7 -16t7 -16t17 -6.5h48q10 0 17 6.5t7 16z
M731 665l34 31q7 7 7 16t-7 15.5t-17 6.5t-17 -6l-34 -32q-7 -6 -7 -15.5t7 -16t17 -6.5t17 7zM356 728q-7 6 -17 6t-17 -6.5t-7 -15.5t7 -16l34 -31q7 -7 17 -7t17 6.5t7 16t-7 15.5zM936 415q0 -5 -3.5 -8.5t-8.5 -3.5h-55q-5 0 -9 3.5t-4 8.5v32q0 5 4 9t9 4h55
q5 0 8.5 -4t3.5 -9v-32zM227 415q0 -5 -3.5 -8.5t-8.5 -3.5h-56q-5 0 -8.5 3.5t-3.5 8.5v32q0 5 3.5 9t8.5 4h56q5 0 8.5 -4t3.5 -9v-32z" />
    <glyph glyph-name="uniE61A" unicode="&#xe61a;" 
d="M953 513q-17 21 -45 29t-58.5 6.5t-76 -14t-83 -26t-95.5 -36.5q-9 -4 -54 -22t-59 -23.5t-56 -21.5t-61.5 -22t-56.5 -18.5t-61 -17t-56 -11t-59.5 -9t-54.5 -1.5q1 -71 79 -238h661q6 63 23.5 114.5t38 84t39.5 64t29 71.5t6 91zM625 531l-105 -4l-4 31l194 3
q24 8 49 15l-25 99q-78 16 -134 15.5t-134 -16.5l-217 -123l1 -31l-17 -68l-31 -66l-83 -21v-13q87 8 166 34t187 76.5t153 68.5zM726 638l4 -26l-221 -9l-4 32zM416 598l69 36l-1 -36l-68 -32v32zM416 521l67 36v-36l-67 -31v31zM346 560l47 25v-30l-47 -21v26zM346 484
l47 25v-30l-47 -22v27zM272 519l57 32v-26l-57 -30v24zM252 443l77 32v-26l-77 -30v24z" />
    <glyph glyph-name="uniE61B" unicode="&#xe61b;" 
d="M889 208h-752q-11 0 -19 -8t-8 -19t8 -19t19 -8h752q11 0 19 8t8 19t-8 19t-19 8zM808 101h-590q-12 0 -19.5 -8t-7.5 -19t7.5 -19t19.5 -8h590q11 0 19 8t8 19t-8 19t-19 8zM636 376l-248 348q-8 11 -22 11q-15 0 -22 -12l-269 -430q-6 -9 -3.5 -20t12.5 -17q6 -4 14 -4
q15 0 23 13l247 395l245 -343q8 -11 21 -11q13 -1 21 9l113 135l141 -187q6 -9 17 -10.5t20 5t10.5 17.5t-4.5 20l-64 85zM888 380l-97 130q-8 10 -21 10.5t-22 -9.5l-112 -135zM309 860h2v-3h-2v3zM101 250l271 432l258 -367l139 148l169 -212z" />
    <glyph glyph-name="uniE61C" unicode="&#xe61c;" 
d="M893 13h-718q-14 0 -23.5 -9.5t-9.5 -23.5q0 -13 9.5 -22.5t23.5 -9.5h718q13 0 23 9.5t10 22.5t-10 23t-23 10zM447 329l-209 486q-19 19 -32.5 13.5t-13.5 -32.5l-115 -652q0 -27 19 -46.5t46 -19.5h327zM566 78h327q27 0 46 19t19 46l-115 653q0 27 -13.5 32.5
t-33.5 -13.5l-208 -487zM447 329z" />
    <glyph glyph-name="uniE61D" unicode="&#xe61d;" 
d="M137 169v-97h826l-18 78h-157v171l114 1l-36 61h36l-40 73h30l-119 225l-120 -226h31l-41 -73l36 1l-36 -62h104v-171l-127 -1zM138 149v275h-69l251 267q8 8 19 8t18 -8l251 -267h-77l1 -315zM348 291h86v91h-86v-91zM348 169h86v91h-86v-91zM233 291h86v91h-86v-91z
M233 169h86v91h-86v-91z" />
    <glyph glyph-name="uniE61E" unicode="&#xe61e;" 
d="M514 821q-89 0 -170.5 -35t-140.5 -93.5t-93.5 -140t-34.5 -170.5q0 -152 92.5 -269t236.5 -154l1 89q-107 35 -174 126t-67 206q0 95 46.5 175.5t127 127.5t175.5 47t175.5 -47t127.5 -127.5t47 -175.5q0 -113 -66.5 -204t-170.5 -127v-92q143 37 235 155t92 270
q0 89 -34.5 170.5t-93.5 140t-140.5 93.5t-170.5 35zM626 49l-1 143l186 186l-297 297l-297 -297l187 -187l1 -122l-1 -21q-3 -41 0 -89q37 -1 58.5 16t23.5 44l3 201l-156 158l181 180l182 -180l-156 -157l-2 -202q1 -32 26.5 -48t61.5 -14v92z" />
    <glyph glyph-name="uniE61F" unicode="&#xe61f;" 
d="M880 429l-9 126q0 19 -14 33t-33 14h-449q-20 0 -33.5 -14t-13.5 -33l-7 -126q-19 0 -33 -13.5t-14 -32.5v-268q0 -5 3.5 -8.5t8.5 -3.5h12q4 0 7.5 3.5t3.5 8.5v58h582v-58q0 -5 3.5 -8.5t8.5 -3.5h12q5 0 8 3.5t3 8.5v268q0 19 -13.5 32.5t-32.5 13.5zM363 543
q0 10 7 17t16 7h426q10 0 17 -7t7 -17l9 -114h-47v70q0 10 -6.5 16.5t-16.5 6.5h-128q-10 0 -16.5 -6.5t-6.5 -16.5v-70h-47v70q0 10 -7 16.5t-16 6.5h-128q-10 0 -17 -6.5t-7 -16.5v-70h-46zM787 494v-65h-152v65q0 7 5 12t12 5h118q7 0 12 -5t5 -12zM565 494v-65h-151v65
q0 7 5 12t12 5h118q7 0 11.5 -5t4.5 -12zM891 208h-582v35h582v-35zM891 278h-582v93q0 10 7 16.5t16 6.5h536q10 0 16.5 -6.5t6.5 -16.5v-93v0zM263 522q9 0 16 7t7 16l-23 163q0 10 -7 17t-17 7h-104q-10 0 -17 -7t-7 -17l-23 -163q0 -9 7 -16t16 -7h58v-384h-23
q-5 0 -8 -3.5t-3 -8.5v-11q0 -5 3 -8.5t8 -3.5h82q5 0 8 3.5t3 8.5v11q0 5 -3 8.5t-8 3.5h-24v384h59zM151 557q-7 0 -11.5 5t-4.5 12l16 106q0 7 4.5 12t11.5 5h40q6 0 11 -5t5 -12l16 -106q0 -7 -4.5 -12t-11.5 -5h-72v0zM405 512h166v-86h-166v86zM628 512h166v-86h-166
v86zM299 183h605v-74h-605v74z" />
    <glyph glyph-name="uniE620" unicode="&#xe620;" 
d="M742 281q-36 57 -91 91t-118 36q-66 1 -124 -33.5t-97 -95.5l-214 115q58 150 177.5 241t263.5 88q139 -3 252.5 -92.5t168.5 -234.5zM532 351q49 -1 92 -26t73 -68l-169 -90l60 -50q-28 -31 -67 -30q-34 1 -60 26l60 54l-164 88q31 46 77 71.5t98 24.5z" />
    <glyph glyph-name="uniE621" unicode="&#xe621;" 
d="M716 135q-150 -24 -205 -24q-23 0 -73.5 5.5t-89.5 10.5t-39 6q-22 0 -35.5 -12.5t-13.5 -36.5q0 -46 49 -62q16 -2 42.5 -4.5t81 -6.5t77.5 -4q25 0 76.5 4t90.5 8t39 5q21 4 35 20.5t14 41.5q0 24 -13.5 36.5t-35.5 12.5v0zM908 612q-5 6 -11 10q-22 18 -50 18
q-37 0 -62.5 -28.5t-25.5 -68.5q0 -49 36 -78q-14 -19 -43 -36.5t-47 -12.5q-19 6 -34 51.5t-20.5 82.5t-6.5 52q32 6 53 33t21 63q0 40 -25.5 68t-62.5 28t-62.5 -28t-25.5 -68q0 -28 12.5 -50.5t33.5 -35.5q-47 -129 -76 -129q-9 0 -21.5 16.5t-23.5 41.5t-18 41.5
t-12 31.5q20 13 32 35t12 49q0 40 -26 68t-62.5 28t-62.5 -28t-26 -68q0 -32 17 -57t43 -35q8 -3 17 -4q-1 -7 -2 -19t-6 -42.5t-10.5 -54.5t-15 -45t-21.5 -24q-23 -6 -52.5 11.5t-41.5 35.5q37 29 37 79q0 40 -26 68.5t-62 28.5q-11 0 -22 -3q-40 -5 -56 -49
q-10 -21 -10 -45q0 -33 18 -59q10 -15 25 -24q21 -14 45 -14q6 0 13 2q3 -26 8.5 -59.5t17 -93t28.5 -98.5t35 -40q7 -1 44.5 -10.5t88.5 -18t95 -8.5q58 0 138 18.5t87 18.5q25 0 50.5 70.5t38.5 140.5l12 71l1 8q5 -1 9 -1q23 0 44 13q27 10 36 42q8 20 8 42q0 41 -27 69
v0zM908 612z" />
    <glyph glyph-name="uniE622" unicode="&#xe622;" 
d="M811 727h-598q-35 0 -60 -25t-25 -61v-682q0 -36 25 -61t60 -25h598q35 0 60 25t25 61v682q0 36 -25 61t-60 25zM357 108h-86v85h86v-85zM357 280h-86v85h86v-85zM357 449h-86v86h86v-86zM764 108h-341v85h341v-85zM764 280h-341v85h341v-85zM764 449h-341v86h341v-86z
" />
    <glyph glyph-name="uniE623" unicode="&#xe623;" 
d="M506 896q-102 0 -195.5 -40.5t-161.5 -109.5t-108.5 -165.5t-40.5 -202.5q0 -102 40.5 -195.5t108.5 -161.5t161.5 -108.5t195.5 -40.5q106 0 202.5 40.5t165.5 108.5t109.5 161.5t40.5 195.5q0 106 -40.5 202t-110 165.5t-165.5 110t-202 40.5zM783 521l-317 -313
q-15 -15 -36 -14.5t-36 15.5l-122 127q-7 7 -8 18.5t5 19.5v0v1v-1q6 8 16.5 9.5t18.5 -4.5l85 -65q17 -13 40.5 -12.5t39.5 13.5l283 236q16 14 34 1q0 1 -1 2q-1 2 -2 3l7 -7l-4 2q12 -17 -3 -31z" />
    <glyph glyph-name="uniE624" unicode="&#xe624;" 
d="M670 162q84 69 118 176q20 65 23 128.5t-11 116t-47.5 91.5t-82.5 54q-87 27 -185.5 -23.5t-152.5 -152.5q-143 94 -146 89q-6 -9 138 -104q-11 -23 -18 -47q-47 -146 -1 -263l-150 23l-37 -194l646 -128l75 197zM323 484q7 21 17 42q4 -3 9 -6q-9 -19 -15 -38
q-22 -79 -18.5 -148t37.5 -122t91 -71q58 -18 122 3t116 75.5t75 128.5q22 79 20.5 148t-34 122.5t-89.5 71.5q-77 24 -163.5 -20.5t-133.5 -133.5q-5 3 -9 6q50 93 140.5 139.5t170.5 20.5q60 -18 94 -74t36 -129t-21 -155q-25 -78 -79.5 -135t-121.5 -79.5t-128 -2.5
q-59 18 -95 73.5t-40 128t19 155.5zM519 424q5 9 14.5 13.5t17.5 1.5q10 -3 13.5 -14.5t-1.5 -24.5q-4 -13 -14.5 -20t-20.5 -4q-10 4 -13.5 15t0.5 24v1q24 -14 25.5 -12t-21.5 20z" />
    <glyph glyph-name="uniE626" unicode="&#xe626;" 
d="M946 93l-251 -1v204l128 1l-39 73h39l-45 87h34l-134 268l-136 -269h35l-46 -87h40l-40 -73h117v-204l-151 -1l-5 426l58 1l-196 172l-261 -514v-176l851 3zM279 86h-59v124h59v-124zM279 222h-59v85h59v-85zM351 86h-59v124h59v-124zM351 222h-59v85h59v-85z" />
    <glyph glyph-name="uniE627" unicode="&#xe627;" 
d="M213 278v-149l297 -117l298 121v149l150 64l-151 154l151 146l-300 66l-139 -115l-150 115l-307 -60l154 -153h20l274 88l276 -88l-259 -112l-291 107v14l-22 -12l-154 -151z" />
    <glyph glyph-name="uniE628" unicode="&#xe628;" 
d="M865 528l-263 214q-31 25 -70 25h-40q-39 0 -70 -25l-265 -214h-58v-59h822v59h-56v0zM862 57v29v30h-58q0 296 -1 296h-117v-148v-148h-116v296h-118v-148v-148h-117v296h-118v-148v-148h-59v-59h-15h-28h-16v-59h823v59h-60z" />
    <glyph glyph-name="uniE629" unicode="&#xe629;" 
d="M770 409q26 -23 60 -29v-372q0 -12 -9 -21t-21 -9h-590q-12 0 -21 9t-9 21v372q34 5 59 28v-198h531v199zM817 695q6 0 13 -2v34q0 12 -9 21t-21 9h-590q-12 0 -21 -9t-9 -21v-35q7 3 14 3h623zM817 658h-47h-531h-45l-119 -130q0 -37 25.5 -63t60.5 -26q14 0 28 5h1v1
q5 1 8 3q1 0 1 1q5 2 8 4h1q16 11 27 29q2 4 4 9q8 17 8 37q0 -37 25.5 -63t61 -26t60.5 26t25 63q0 -37 25.5 -63t61 -26t61 26t25.5 63q0 -37 25 -63t60.5 -26t61 26t25.5 63q0 -23 11 -43l1 -1v-1q2 -4 4 -6q0 -1 1 -2q4 -5 5 -6v-1l1 -1q3 -3 7 -6q11 -10 26 -16
q5 -2 10 -3q10 -3 20 -3q35 0 60.5 26t25.5 63z" />
    <glyph glyph-name="uniE62B" unicode="&#xe62b;" 
d="M554 774q-111 0 -204.5 -54.5t-148 -148t-54.5 -204.5t54.5 -204.5t148 -148t204.5 -54.5t204.5 54.5t148 148t54.5 204.5t-54.5 204.5t-148 148t-204.5 54.5zM556 750q101 0 187.5 -48.5t139 -132.5t57.5 -184h-61q-1 10 -3.5 24t-11.5 44.5t-22.5 58.5t-39 61t-58.5 57
t-84 40.5t-112 17.5q-53 1 -100 -12.5t-79 -35t-58.5 -48.5t-42 -53t-26 -49.5t-14.5 -36t-4 -14.5l125 -2l169 173q2 2 5 4t11.5 5.5t13.5 3.5q7 -1 14 -3t10 -5l4 -2l222 -228h-75l-150 148l-7 7l-7 7l-12 11l-178 -173h-197q5 100 57.5 184t139 132.5t187.5 48.5z
M547 507l46 -48l-49 -48l-47 46zM472 432l47 -46l-44 -43l-47 46zM545 362l46 -45l-46 -44l-45 45zM615 342l-45 44l48 48l44 -46zM556 -18q-102 0 -188.5 49t-139 133.5t-56.5 185.5h48q1 -10 3.5 -24t12.5 -44.5t24 -58t40.5 -59.5t60 -55t84.5 -38t111 -15
q54 0 100.5 14.5t78 37t57.5 50t41 54t25 50t13.5 36t3.5 14.5l-125 -1l-165 -177q-2 -1 -5 -3.5t-11 -6t-14 -3.5q-7 0 -14 2.5t-10 4.5l-4 2l-228 220h90l14 14l117 -116l-24 -24l25 -25l25 24l24 -24l26 24l-25 25l116 115l12 -13h241q-4 -101 -56 -185.5t-139 -133.5
t-189 -49z" />
    <glyph glyph-name="uniE62C" unicode="&#xe62c;" 
d="M634 584q11 1 21 1q83 0 143 -59q22 39 22 84q0 70 -47.5 119.5t-114.5 49.5q-43 0 -79.5 -21.5t-58.5 -57.5q75 -39 114 -116v0zM614 733q12 0 20.5 -9t8.5 -21.5t-8.5 -22t-20.5 -9.5t-20.5 9.5t-8.5 22t8.5 21.5t20.5 9zM445 364q0 75 43 134t110 78q-29 53 -80 84
t-111 31q-91 0 -156 -67.5t-65 -163.5t65 -163.5t156 -67.5q38 0 73 13q-35 55 -35 122v0zM348 505q-24 0 -41.5 18.5t-17.5 44t17.5 43.5t42 18t41.5 -18t17 -43.5t-17 -44t-42 -18.5zM655 550q-73 0 -125 -54.5t-52 -131t52 -131t125 -54.5t125 54.5t52 131t-52 131
t-125 54.5zM597 395q-19 0 -32 13.5t-13 33t13 33t31.5 13.5t31.5 -13.5t13 -33t-13 -33t-31 -13.5zM503 212q-30 -12 -62 -17q3 -26 23 -44t46 -18q36 0 57 31q-36 18 -64 48v0zM490 157q-7 0 -11 4.5t-4 11t4 11t10.5 4.5t10.5 -4.5t4 -11t-4 -11t-10 -4.5zM454 4l-108 1
q65 30 71 38q10 11 21.5 34t18.5 40t7 18q8 -7 13 -9l19 -5z" />
  </font>
</defs>
</svg>
